<svg xmlns="http://www.w3.org/2000/svg" xmlns:xlink="http://www.w3.org/1999/xlink" width="500" zoomAndPan="magnify" viewBox="0 0 375 374.999991" height="500" preserveAspectRatio="xMidYMid meet" version="1.0"><defs><g/></defs><g fill="#004aad" fill-opacity="1"><g transform="translate(83.389561, 187.19993)"><g><path d="M 29.875 -11.515625 L 30.953125 -12.296875 C 32.316406 -13.097656 33.28125 -13.5 33.84375 -13.5 C 35.082031 -13.5 36.421875 -12.378906 37.859375 -10.140625 C 38.742188 -8.742188 39.1875 -7.625 39.1875 -6.78125 C 39.1875 -5.9375 38.914062 -5.234375 38.375 -4.671875 C 37.832031 -4.117188 37.203125 -3.617188 36.484375 -3.171875 C 35.765625 -2.734375 35.070312 -2.3125 34.40625 -1.90625 C 33.75 -1.507812 32.398438 -0.992188 30.359375 -0.359375 C 28.316406 0.273438 26.34375 0.59375 24.4375 0.59375 C 22.539062 0.59375 20.625 0.34375 18.6875 -0.15625 C 16.75 -0.65625 14.75 -1.492188 12.6875 -2.671875 C 10.625 -3.847656 8.773438 -5.285156 7.140625 -6.984375 C 5.503906 -8.691406 4.15625 -10.875 3.09375 -13.53125 C 2.03125 -16.1875 1.5 -19.070312 1.5 -22.1875 C 1.5 -25.3125 2.019531 -28.144531 3.0625 -30.6875 C 4.101562 -33.226562 5.429688 -35.328125 7.046875 -36.984375 C 8.671875 -38.648438 10.519531 -40.039062 12.59375 -41.15625 C 16.519531 -43.320312 20.460938 -44.40625 24.421875 -44.40625 C 26.296875 -44.40625 28.203125 -44.113281 30.140625 -43.53125 C 32.085938 -42.945312 33.5625 -42.359375 34.5625 -41.765625 L 36 -40.921875 C 36.71875 -40.484375 37.28125 -40.125 37.6875 -39.84375 C 38.71875 -39 39.234375 -38.046875 39.234375 -36.984375 C 39.234375 -35.929688 38.816406 -34.820312 37.984375 -33.65625 C 36.421875 -31.5 35.019531 -30.421875 33.78125 -30.421875 C 33.0625 -30.421875 32.039062 -30.859375 30.71875 -31.734375 C 29.039062 -33.097656 26.800781 -33.78125 24 -33.78125 C 21.394531 -33.78125 18.832031 -32.878906 16.3125 -31.078125 C 15.113281 -30.203125 14.113281 -28.960938 13.3125 -27.359375 C 12.519531 -25.753906 12.125 -23.941406 12.125 -21.921875 C 12.125 -19.910156 12.519531 -18.101562 13.3125 -16.5 C 14.113281 -14.894531 15.132812 -13.632812 16.375 -12.71875 C 18.820312 -10.957031 21.363281 -10.078125 24 -10.078125 C 25.238281 -10.078125 26.40625 -10.238281 27.5 -10.5625 C 28.601562 -10.882812 29.394531 -11.203125 29.875 -11.515625 Z M 29.875 -11.515625 "/></g></g></g><g fill="#004aad" fill-opacity="1"><g transform="translate(124.121633, 187.19993)"><g><path d="M 13.015625 -8.875 L 29.34375 -8.875 C 30.65625 -8.875 31.613281 -8.722656 32.21875 -8.421875 C 32.820312 -8.128906 33.222656 -7.660156 33.421875 -7.015625 C 33.617188 -6.378906 33.71875 -5.53125 33.71875 -4.46875 C 33.71875 -3.40625 33.617188 -2.550781 33.421875 -1.90625 C 33.222656 -1.269531 32.882812 -0.832031 32.40625 -0.59375 C 31.644531 -0.195312 30.601562 0 29.28125 0 L 7.6875 0 C 4.882812 0 3.242188 -0.757812 2.765625 -2.28125 C 2.523438 -2.914062 2.40625 -3.9375 2.40625 -5.34375 L 2.40625 -38.703125 C 2.40625 -39.617188 2.429688 -40.304688 2.484375 -40.765625 C 2.546875 -41.222656 2.738281 -41.753906 3.0625 -42.359375 C 3.625 -43.441406 5.179688 -43.984375 7.734375 -43.984375 C 10.535156 -43.984375 12.195312 -43.242188 12.71875 -41.765625 C 12.914062 -41.078125 13.015625 -40.035156 13.015625 -38.640625 Z M 13.015625 -8.875 "/></g></g></g><g fill="#004aad" fill-opacity="1"><g transform="translate(159.334769, 187.19993)"><g><path d="M 23.046875 -44.515625 C 28.960938 -44.515625 34.097656 -42.375 38.453125 -38.09375 C 42.816406 -33.820312 45 -28.515625 45 -22.171875 C 45 -15.828125 42.914062 -10.425781 38.75 -5.96875 C 34.59375 -1.507812 29.472656 0.71875 23.390625 0.71875 C 17.316406 0.71875 12.148438 -1.476562 7.890625 -5.875 C 3.628906 -10.28125 1.5 -15.519531 1.5 -21.59375 C 1.5 -24.914062 2.097656 -28.023438 3.296875 -30.921875 C 4.492188 -33.828125 6.09375 -36.257812 8.09375 -38.21875 C 10.09375 -40.175781 12.394531 -41.710938 15 -42.828125 C 17.601562 -43.953125 20.285156 -44.515625 23.046875 -44.515625 Z M 12.125 -21.890625 C 12.125 -18.335938 13.269531 -15.453125 15.5625 -13.234375 C 17.863281 -11.015625 20.4375 -9.90625 23.28125 -9.90625 C 26.125 -9.90625 28.679688 -10.984375 30.953125 -13.140625 C 33.234375 -15.296875 34.375 -18.191406 34.375 -21.828125 C 34.375 -25.472656 33.222656 -28.394531 30.921875 -30.59375 C 28.628906 -32.800781 26.0625 -33.90625 23.21875 -33.90625 C 20.375 -33.90625 17.8125 -32.789062 15.53125 -30.5625 C 13.257812 -28.34375 12.125 -25.453125 12.125 -21.890625 Z M 12.125 -21.890625 "/></g></g></g><g fill="#004aad" fill-opacity="1"><g transform="translate(205.825713, 187.19993)"><g><path d="M 31.140625 -42.359375 C 31.535156 -42.992188 32.113281 -43.429688 32.875 -43.671875 C 33.632812 -43.921875 34.582031 -44.046875 35.71875 -44.046875 C 36.863281 -44.046875 37.773438 -43.941406 38.453125 -43.734375 C 39.140625 -43.535156 39.660156 -43.296875 40.015625 -43.015625 C 40.378906 -42.734375 40.640625 -42.316406 40.796875 -41.765625 C 41.035156 -41.078125 41.15625 -40.035156 41.15625 -38.640625 L 41.15625 -20.515625 C 41.15625 -15.234375 39.515625 -10.4375 36.234375 -6.125 C 34.640625 -4.082031 32.582031 -2.429688 30.0625 -1.171875 C 27.539062 0.0859375 24.75 0.71875 21.6875 0.71875 C 18.625 0.71875 15.84375 0.078125 13.34375 -1.203125 C 10.84375 -2.484375 8.816406 -4.160156 7.265625 -6.234375 C 4.023438 -10.472656 2.40625 -15.273438 2.40625 -20.640625 L 2.40625 -38.703125 C 2.40625 -39.660156 2.429688 -40.367188 2.484375 -40.828125 C 2.546875 -41.285156 2.738281 -41.8125 3.0625 -42.40625 C 3.382812 -43.007812 3.921875 -43.429688 4.671875 -43.671875 C 5.429688 -43.921875 6.453125 -44.046875 7.734375 -44.046875 C 9.015625 -44.046875 10.035156 -43.921875 10.796875 -43.671875 C 11.554688 -43.429688 12.078125 -43.015625 12.359375 -42.421875 C 12.835938 -41.503906 13.078125 -40.242188 13.078125 -38.640625 L 13.078125 -20.640625 C 13.078125 -18.203125 13.675781 -15.882812 14.875 -13.6875 C 15.476562 -12.5625 16.378906 -11.65625 17.578125 -10.96875 C 18.773438 -10.289062 20.195312 -9.953125 21.84375 -9.953125 C 24.757812 -9.953125 26.9375 -11.03125 28.375 -13.1875 C 29.820312 -15.351562 30.546875 -17.859375 30.546875 -20.703125 L 30.546875 -39.0625 C 30.546875 -40.625 30.742188 -41.722656 31.140625 -42.359375 Z M 31.140625 -42.359375 "/></g></g></g><g fill="#004aad" fill-opacity="1"><g transform="translate(249.377232, 187.19993)"><g><path d="M 7.734375 -44.046875 L 18.84375 -43.984375 C 24.644531 -43.984375 29.742188 -41.890625 34.140625 -37.703125 C 38.535156 -33.523438 40.734375 -28.382812 40.734375 -22.28125 C 40.734375 -16.1875 38.582031 -10.957031 34.28125 -6.59375 C 29.988281 -2.238281 24.78125 -0.0625 18.65625 -0.0625 L 7.6875 -0.0625 C 5.238281 -0.0625 3.71875 -0.5625 3.125 -1.5625 C 2.644531 -2.394531 2.40625 -3.675781 2.40625 -5.40625 L 2.40625 -38.765625 C 2.40625 -39.722656 2.429688 -40.421875 2.484375 -40.859375 C 2.546875 -41.296875 2.738281 -41.816406 3.0625 -42.421875 C 3.625 -43.503906 5.179688 -44.046875 7.734375 -44.046875 Z M 18.84375 -10.6875 C 21.71875 -10.6875 24.316406 -11.753906 26.640625 -13.890625 C 28.960938 -16.023438 30.125 -18.710938 30.125 -21.953125 C 30.125 -25.191406 28.992188 -27.898438 26.734375 -30.078125 C 24.472656 -32.265625 21.820312 -33.359375 18.78125 -33.359375 L 13.015625 -33.359375 L 13.015625 -10.6875 Z M 18.84375 -10.6875 "/></g></g></g><g fill="#004aad" fill-opacity="1"><g transform="translate(85.604405, 232.199927)"><g><path d="M 3.0625 -6.1875 C 2.019531 -7.457031 1.5 -8.601562 1.5 -9.625 C 1.5 -10.644531 2.359375 -12 4.078125 -13.6875 C 5.078125 -14.644531 6.132812 -15.125 7.25 -15.125 C 8.375 -15.125 9.9375 -14.125 11.9375 -12.125 C 12.5 -11.4375 13.300781 -10.78125 14.34375 -10.15625 C 15.382812 -9.539062 16.34375 -9.234375 17.21875 -9.234375 C 20.9375 -9.234375 22.796875 -10.753906 22.796875 -13.796875 C 22.796875 -14.722656 22.285156 -15.492188 21.265625 -16.109375 C 20.242188 -16.734375 18.972656 -17.179688 17.453125 -17.453125 C 15.941406 -17.734375 14.304688 -18.179688 12.546875 -18.796875 C 10.785156 -19.421875 9.144531 -20.15625 7.625 -21 C 6.101562 -21.84375 4.832031 -23.171875 3.8125 -24.984375 C 2.789062 -26.804688 2.28125 -29 2.28125 -31.5625 C 2.28125 -35.082031 3.585938 -38.148438 6.203125 -40.765625 C 8.828125 -43.390625 12.398438 -44.703125 16.921875 -44.703125 C 19.316406 -44.703125 21.503906 -44.390625 23.484375 -43.765625 C 25.460938 -43.148438 26.832031 -42.519531 27.59375 -41.875 L 29.09375 -40.734375 C 30.332031 -39.578125 30.953125 -38.597656 30.953125 -37.796875 C 30.953125 -36.992188 30.472656 -35.894531 29.515625 -34.5 C 28.160156 -32.5 26.757812 -31.5 25.3125 -31.5 C 24.476562 -31.5 23.441406 -31.898438 22.203125 -32.703125 C 22.078125 -32.773438 21.84375 -32.972656 21.5 -33.296875 C 21.164062 -33.617188 20.859375 -33.878906 20.578125 -34.078125 C 19.734375 -34.597656 18.660156 -34.859375 17.359375 -34.859375 C 16.066406 -34.859375 14.988281 -34.546875 14.125 -33.921875 C 13.269531 -33.304688 12.84375 -32.445312 12.84375 -31.34375 C 12.84375 -30.25 13.351562 -29.359375 14.375 -28.671875 C 15.394531 -27.992188 16.660156 -27.535156 18.171875 -27.296875 C 19.691406 -27.054688 21.351562 -26.6875 23.15625 -26.1875 C 24.957031 -25.6875 26.617188 -25.078125 28.140625 -24.359375 C 29.660156 -23.640625 30.929688 -22.390625 31.953125 -20.609375 C 32.972656 -18.828125 33.484375 -16.632812 33.484375 -14.03125 C 33.484375 -11.4375 32.960938 -9.148438 31.921875 -7.171875 C 30.878906 -5.191406 29.519531 -3.660156 27.84375 -2.578125 C 24.601562 -0.460938 21.140625 0.59375 17.453125 0.59375 C 15.578125 0.59375 13.796875 0.363281 12.109375 -0.09375 C 10.429688 -0.550781 9.078125 -1.117188 8.046875 -1.796875 C 5.921875 -3.078125 4.4375 -4.316406 3.59375 -5.515625 Z M 3.0625 -6.1875 "/></g></g></g><g fill="#004aad" fill-opacity="1"><g transform="translate(120.577592, 232.199927)"><g><path d="M 5.28125 -44.046875 L 38.640625 -44.046875 C 39.921875 -44.046875 40.859375 -43.894531 41.453125 -43.59375 C 42.054688 -43.289062 42.457031 -42.816406 42.65625 -42.171875 C 42.851562 -41.535156 42.953125 -40.695312 42.953125 -39.65625 C 42.953125 -38.613281 42.851562 -37.78125 42.65625 -37.15625 C 42.457031 -36.539062 42.117188 -36.113281 41.640625 -35.875 C 40.921875 -35.519531 39.898438 -35.34375 38.578125 -35.34375 L 27.125 -35.34375 L 27.125 -5.15625 C 27.125 -4.238281 27.09375 -3.554688 27.03125 -3.109375 C 26.96875 -2.671875 26.785156 -2.160156 26.484375 -1.578125 C 26.191406 -1.003906 25.664062 -0.597656 24.90625 -0.359375 C 24.144531 -0.117188 23.144531 0 21.90625 0 C 20.664062 0 19.671875 -0.117188 18.921875 -0.359375 C 18.179688 -0.597656 17.660156 -1.003906 17.359375 -1.578125 C 17.066406 -2.160156 16.890625 -2.679688 16.828125 -3.140625 C 16.765625 -3.609375 16.734375 -4.300781 16.734375 -5.21875 L 16.734375 -35.34375 L 5.21875 -35.34375 C 3.9375 -35.34375 2.992188 -35.488281 2.390625 -35.78125 C 1.796875 -36.082031 1.398438 -36.550781 1.203125 -37.1875 C 1.003906 -37.832031 0.90625 -38.675781 0.90625 -39.71875 C 0.90625 -40.757812 1.003906 -41.585938 1.203125 -42.203125 C 1.398438 -42.828125 1.738281 -43.257812 2.21875 -43.5 C 2.9375 -43.863281 3.957031 -44.046875 5.28125 -44.046875 Z M 5.28125 -44.046875 "/></g></g></g><g fill="#004aad" fill-opacity="1"><g transform="translate(164.429049, 232.199927)"><g><path d="M 27.78125 -40.859375 L 43.984375 -7.375 C 44.660156 -6.019531 45 -5 45 -4.3125 C 45 -2.875 43.835938 -1.578125 41.515625 -0.421875 C 40.160156 0.253906 39.09375 0.59375 38.3125 0.59375 C 37.53125 0.59375 36.890625 0.410156 36.390625 0.046875 C 35.890625 -0.304688 35.53125 -0.679688 35.3125 -1.078125 C 35.09375 -1.484375 34.78125 -2.082031 34.375 -2.875 L 31.265625 -9.359375 L 14.640625 -9.359375 L 11.515625 -2.875 C 11.117188 -2.082031 10.8125 -1.503906 10.59375 -1.140625 C 10.375 -0.773438 10.015625 -0.398438 9.515625 -0.015625 C 9.015625 0.359375 8.375 0.546875 7.59375 0.546875 C 6.8125 0.546875 5.738281 0.203125 4.375 -0.484375 C 2.0625 -1.597656 0.90625 -2.875 0.90625 -4.3125 C 0.90625 -5 1.242188 -6.019531 1.921875 -7.375 L 18.125 -40.921875 C 18.5625 -41.835938 19.226562 -42.578125 20.125 -43.140625 C 21.03125 -43.703125 21.984375 -43.984375 22.984375 -43.984375 C 25.140625 -43.984375 26.738281 -42.941406 27.78125 -40.859375 Z M 22.921875 -26.453125 L 18.953125 -18.234375 L 26.9375 -18.234375 Z M 22.921875 -26.453125 "/></g></g></g><g fill="#004aad" fill-opacity="1"><g transform="translate(210.320106, 232.199927)"><g><path d="M 29.875 -11.515625 L 30.953125 -12.296875 C 32.316406 -13.097656 33.28125 -13.5 33.84375 -13.5 C 35.082031 -13.5 36.421875 -12.378906 37.859375 -10.140625 C 38.742188 -8.742188 39.1875 -7.625 39.1875 -6.78125 C 39.1875 -5.9375 38.914062 -5.234375 38.375 -4.671875 C 37.832031 -4.117188 37.203125 -3.617188 36.484375 -3.171875 C 35.765625 -2.734375 35.070312 -2.3125 34.40625 -1.90625 C 33.75 -1.507812 32.398438 -0.992188 30.359375 -0.359375 C 28.316406 0.273438 26.34375 0.59375 24.4375 0.59375 C 22.539062 0.59375 20.625 0.34375 18.6875 -0.15625 C 16.75 -0.65625 14.75 -1.492188 12.6875 -2.671875 C 10.625 -3.847656 8.773438 -5.285156 7.140625 -6.984375 C 5.503906 -8.691406 4.15625 -10.875 3.09375 -13.53125 C 2.03125 -16.1875 1.5 -19.070312 1.5 -22.1875 C 1.5 -25.3125 2.019531 -28.144531 3.0625 -30.6875 C 4.101562 -33.226562 5.429688 -35.328125 7.046875 -36.984375 C 8.671875 -38.648438 10.519531 -40.039062 12.59375 -41.15625 C 16.519531 -43.320312 20.460938 -44.40625 24.421875 -44.40625 C 26.296875 -44.40625 28.203125 -44.113281 30.140625 -43.53125 C 32.085938 -42.945312 33.5625 -42.359375 34.5625 -41.765625 L 36 -40.921875 C 36.71875 -40.484375 37.28125 -40.125 37.6875 -39.84375 C 38.71875 -39 39.234375 -38.046875 39.234375 -36.984375 C 39.234375 -35.929688 38.816406 -34.820312 37.984375 -33.65625 C 36.421875 -31.5 35.019531 -30.421875 33.78125 -30.421875 C 33.0625 -30.421875 32.039062 -30.859375 30.71875 -31.734375 C 29.039062 -33.097656 26.800781 -33.78125 24 -33.78125 C 21.394531 -33.78125 18.832031 -32.878906 16.3125 -31.078125 C 15.113281 -30.203125 14.113281 -28.960938 13.3125 -27.359375 C 12.519531 -25.753906 12.125 -23.941406 12.125 -21.921875 C 12.125 -19.910156 12.519531 -18.101562 13.3125 -16.5 C 14.113281 -14.894531 15.132812 -13.632812 16.375 -12.71875 C 18.820312 -10.957031 21.363281 -10.078125 24 -10.078125 C 25.238281 -10.078125 26.40625 -10.238281 27.5 -10.5625 C 28.601562 -10.882812 29.394531 -11.203125 29.875 -11.515625 Z M 29.875 -11.515625 "/></g></g></g><g fill="#004aad" fill-opacity="1"><g transform="translate(251.052178, 232.199927)"><g><path d="M 21.234375 -22.078125 C 27.359375 -16.203125 31.703125 -11.78125 34.265625 -8.8125 C 35.578125 -7.332031 36.234375 -6.082031 36.234375 -5.0625 C 36.234375 -4.050781 35.429688 -2.851562 33.828125 -1.46875 C 32.234375 -0.09375 30.925781 0.59375 29.90625 0.59375 C 28.882812 0.59375 27.65625 -0.242188 26.21875 -1.921875 L 13.015625 -16.984375 L 13.015625 -5.28125 C 13.015625 -4.320312 12.984375 -3.617188 12.921875 -3.171875 C 12.867188 -2.734375 12.679688 -2.21875 12.359375 -1.625 C 11.796875 -0.539062 10.238281 0 7.6875 0 C 4.882812 0 3.242188 -0.757812 2.765625 -2.28125 C 2.523438 -2.914062 2.40625 -3.9375 2.40625 -5.34375 L 2.40625 -38.703125 C 2.40625 -39.617188 2.429688 -40.304688 2.484375 -40.765625 C 2.546875 -41.222656 2.738281 -41.753906 3.0625 -42.359375 C 3.625 -43.441406 5.179688 -43.984375 7.734375 -43.984375 C 10.535156 -43.984375 12.195312 -43.242188 12.71875 -41.765625 C 12.914062 -41.078125 13.015625 -40.035156 13.015625 -38.640625 L 13.015625 -27.1875 C 18.460938 -33.300781 22.863281 -38.316406 26.21875 -42.234375 C 27.613281 -43.878906 28.832031 -44.703125 29.875 -44.703125 C 30.914062 -44.703125 32.234375 -44.007812 33.828125 -42.625 C 35.429688 -41.25 36.234375 -40.050781 36.234375 -39.03125 C 36.234375 -38.007812 35.632812 -36.800781 34.4375 -35.40625 C 32.113281 -32.71875 28.515625 -29.035156 23.640625 -24.359375 Z M 21.234375 -22.078125 "/></g></g></g></svg>