<svg xmlns="http://www.w3.org/2000/svg" xmlns:xlink="http://www.w3.org/1999/xlink" width="500" zoomAndPan="magnify" viewBox="0 0 375 374.999991" height="500" preserveAspectRatio="xMidYMid meet" version="1.0"><defs><g/></defs><g fill="#004aad" fill-opacity="1"><g transform="translate(13.971947, 186.749138)"><g><path d="M 49.796875 -19.203125 L 51.59375 -20.5 C 53.851562 -21.832031 55.453125 -22.5 56.390625 -22.5 C 58.453125 -22.5 60.6875 -20.628906 63.09375 -16.890625 C 64.5625 -14.554688 65.296875 -12.691406 65.296875 -11.296875 C 65.296875 -9.898438 64.84375 -8.734375 63.9375 -7.796875 C 63.039062 -6.867188 61.988281 -6.035156 60.78125 -5.296875 C 59.582031 -4.566406 58.429688 -3.867188 57.328125 -3.203125 C 56.234375 -2.535156 53.988281 -1.664062 50.59375 -0.59375 C 47.195312 0.46875 43.914062 1 40.75 1 C 37.582031 1 34.378906 0.582031 31.140625 -0.25 C 27.910156 -1.082031 24.578125 -2.484375 21.140625 -4.453125 C 17.710938 -6.421875 14.628906 -8.816406 11.890625 -11.640625 C 9.160156 -14.472656 6.910156 -18.109375 5.140625 -22.546875 C 3.378906 -26.984375 2.5 -31.800781 2.5 -37 C 2.5 -42.195312 3.363281 -46.910156 5.09375 -51.140625 C 6.832031 -55.367188 9.050781 -58.867188 11.75 -61.640625 C 14.445312 -64.410156 17.53125 -66.726562 21 -68.59375 C 27.53125 -72.1875 34.09375 -73.984375 40.6875 -73.984375 C 43.820312 -73.984375 47.003906 -73.5 50.234375 -72.53125 C 53.472656 -71.570312 55.925781 -70.59375 57.59375 -69.59375 L 59.984375 -68.1875 C 61.191406 -67.457031 62.128906 -66.859375 62.796875 -66.390625 C 64.523438 -64.992188 65.390625 -63.410156 65.390625 -61.640625 C 65.390625 -59.867188 64.691406 -58.019531 63.296875 -56.09375 C 60.691406 -52.488281 58.359375 -50.6875 56.296875 -50.6875 C 55.085938 -50.6875 53.382812 -51.421875 51.1875 -52.890625 C 48.394531 -55.160156 44.664062 -56.296875 40 -56.296875 C 35.664062 -56.296875 31.398438 -54.796875 27.203125 -51.796875 C 25.203125 -50.328125 23.535156 -48.257812 22.203125 -45.59375 C 20.867188 -42.925781 20.203125 -39.910156 20.203125 -36.546875 C 20.203125 -33.179688 20.867188 -30.164062 22.203125 -27.5 C 23.535156 -24.832031 25.234375 -22.734375 27.296875 -21.203125 C 31.359375 -18.265625 35.59375 -16.796875 40 -16.796875 C 42.0625 -16.796875 44.007812 -17.0625 45.84375 -17.59375 C 47.675781 -18.125 48.992188 -18.660156 49.796875 -19.203125 Z M 49.796875 -19.203125 "/></g></g></g><g fill="#004aad" fill-opacity="1"><g transform="translate(81.861316, 186.749138)"><g><path d="M 21.703125 -14.796875 L 48.890625 -14.796875 C 51.085938 -14.796875 52.6875 -14.546875 53.6875 -14.046875 C 54.6875 -13.546875 55.351562 -12.757812 55.6875 -11.6875 C 56.019531 -10.625 56.1875 -9.207031 56.1875 -7.4375 C 56.1875 -5.675781 56.019531 -4.257812 55.6875 -3.1875 C 55.351562 -2.125 54.785156 -1.394531 53.984375 -1 C 52.722656 -0.332031 50.992188 0 48.796875 0 L 12.796875 0 C 8.128906 0 5.394531 -1.265625 4.59375 -3.796875 C 4.195312 -4.867188 4 -6.570312 4 -8.90625 L 4 -64.484375 C 4 -66.023438 4.046875 -67.175781 4.140625 -67.9375 C 4.242188 -68.707031 4.5625 -69.59375 5.09375 -70.59375 C 6.03125 -72.382812 8.628906 -73.28125 12.890625 -73.28125 C 17.554688 -73.28125 20.328125 -72.050781 21.203125 -69.59375 C 21.535156 -68.457031 21.703125 -66.722656 21.703125 -64.390625 Z M 21.703125 -14.796875 "/></g></g></g><g fill="#004aad" fill-opacity="1"><g transform="translate(140.55212, 186.749138)"><g><path d="M 38.390625 -74.1875 C 48.253906 -74.1875 56.816406 -70.617188 64.078125 -63.484375 C 71.347656 -56.359375 74.984375 -47.507812 74.984375 -36.9375 C 74.984375 -26.375 71.515625 -17.375 64.578125 -9.9375 C 57.648438 -2.507812 49.117188 1.203125 38.984375 1.203125 C 28.859375 1.203125 20.242188 -2.460938 13.140625 -9.796875 C 6.046875 -17.128906 2.5 -25.863281 2.5 -36 C 2.5 -41.53125 3.5 -46.710938 5.5 -51.546875 C 7.5 -56.378906 10.164062 -60.425781 13.5 -63.6875 C 16.832031 -66.957031 20.664062 -69.523438 25 -71.390625 C 29.332031 -73.253906 33.796875 -74.1875 38.390625 -74.1875 Z M 20.203125 -36.484375 C 20.203125 -30.554688 22.113281 -25.742188 25.9375 -22.046875 C 29.769531 -18.347656 34.050781 -16.5 38.78125 -16.5 C 43.519531 -16.5 47.789062 -18.296875 51.59375 -21.890625 C 55.394531 -25.492188 57.296875 -30.328125 57.296875 -36.390625 C 57.296875 -42.460938 55.378906 -47.328125 51.546875 -50.984375 C 47.710938 -54.648438 43.425781 -56.484375 38.6875 -56.484375 C 33.957031 -56.484375 29.691406 -54.632812 25.890625 -50.9375 C 22.097656 -47.238281 20.203125 -42.421875 20.203125 -36.484375 Z M 20.203125 -36.484375 "/></g></g></g><g fill="#004aad" fill-opacity="1"><g transform="translate(218.03998, 186.749138)"><g><path d="M 51.890625 -70.578125 C 52.554688 -71.648438 53.519531 -72.382812 54.78125 -72.78125 C 56.050781 -73.1875 57.632812 -73.390625 59.53125 -73.390625 C 61.4375 -73.390625 62.957031 -73.222656 64.09375 -72.890625 C 65.226562 -72.554688 66.09375 -72.15625 66.6875 -71.6875 C 67.289062 -71.21875 67.722656 -70.519531 67.984375 -69.59375 C 68.390625 -68.457031 68.59375 -66.722656 68.59375 -64.390625 L 68.59375 -34.1875 C 68.59375 -25.394531 65.859375 -17.398438 60.390625 -10.203125 C 57.722656 -6.796875 54.289062 -4.039062 50.09375 -1.9375 C 45.894531 0.15625 41.242188 1.203125 36.140625 1.203125 C 31.046875 1.203125 26.414062 0.132812 22.25 -2 C 18.082031 -4.132812 14.695312 -6.929688 12.09375 -10.390625 C 6.695312 -17.460938 4 -25.460938 4 -34.390625 L 4 -64.484375 C 4 -66.085938 4.046875 -67.269531 4.140625 -68.03125 C 4.242188 -68.800781 4.5625 -69.6875 5.09375 -70.6875 C 5.632812 -71.6875 6.535156 -72.382812 7.796875 -72.78125 C 9.066406 -73.1875 10.765625 -73.390625 12.890625 -73.390625 C 15.023438 -73.390625 16.722656 -73.1875 17.984375 -72.78125 C 19.253906 -72.382812 20.125 -71.6875 20.59375 -70.6875 C 21.394531 -69.15625 21.796875 -67.054688 21.796875 -64.390625 L 21.796875 -34.390625 C 21.796875 -30.328125 22.796875 -26.460938 24.796875 -22.796875 C 25.796875 -20.929688 27.296875 -19.429688 29.296875 -18.296875 C 31.296875 -17.160156 33.660156 -16.59375 36.390625 -16.59375 C 41.253906 -16.59375 44.882812 -18.390625 47.28125 -21.984375 C 49.6875 -25.585938 50.890625 -29.757812 50.890625 -34.5 L 50.890625 -65.09375 C 50.890625 -67.6875 51.222656 -69.515625 51.890625 -70.578125 Z M 51.890625 -70.578125 "/></g></g></g><g fill="#004aad" fill-opacity="1"><g transform="translate(290.628614, 186.749138)"><g><path d="M 12.890625 -73.390625 L 31.390625 -73.28125 C 41.054688 -73.28125 49.554688 -69.796875 56.890625 -62.828125 C 64.222656 -55.867188 67.890625 -47.304688 67.890625 -37.140625 C 67.890625 -26.972656 64.304688 -18.253906 57.140625 -10.984375 C 49.972656 -3.722656 41.289062 -0.09375 31.09375 -0.09375 L 12.796875 -0.09375 C 8.734375 -0.09375 6.203125 -0.925781 5.203125 -2.59375 C 4.398438 -4 4 -6.132812 4 -9 L 4 -64.59375 C 4 -66.1875 4.046875 -67.347656 4.140625 -68.078125 C 4.242188 -68.816406 4.5625 -69.6875 5.09375 -70.6875 C 6.03125 -72.488281 8.628906 -73.390625 12.890625 -73.390625 Z M 31.390625 -17.796875 C 36.191406 -17.796875 40.523438 -19.578125 44.390625 -23.140625 C 48.253906 -26.710938 50.1875 -31.195312 50.1875 -36.59375 C 50.1875 -41.988281 48.300781 -46.503906 44.53125 -50.140625 C 40.769531 -53.773438 36.359375 -55.59375 31.296875 -55.59375 L 21.703125 -55.59375 L 21.703125 -17.796875 Z M 31.390625 -17.796875 "/></g></g></g><g fill="#004aad" fill-opacity="1"><g transform="translate(17.675072, 262.499133)"><g><path d="M 5.09375 -10.296875 C 3.363281 -12.429688 2.5 -14.347656 2.5 -16.046875 C 2.5 -17.742188 3.929688 -19.992188 6.796875 -22.796875 C 8.460938 -24.398438 10.226562 -25.203125 12.09375 -25.203125 C 13.957031 -25.203125 16.554688 -23.535156 19.890625 -20.203125 C 20.828125 -19.066406 22.160156 -17.976562 23.890625 -16.9375 C 25.628906 -15.90625 27.234375 -15.390625 28.703125 -15.390625 C 34.898438 -15.390625 38 -17.925781 38 -23 C 38 -24.53125 37.144531 -25.8125 35.4375 -26.84375 C 33.738281 -27.875 31.625 -28.625 29.09375 -29.09375 C 26.5625 -29.5625 23.828125 -30.3125 20.890625 -31.34375 C 17.960938 -32.375 15.234375 -33.585938 12.703125 -34.984375 C 10.171875 -36.390625 8.050781 -38.609375 6.34375 -41.640625 C 4.644531 -44.671875 3.796875 -48.320312 3.796875 -52.59375 C 3.796875 -58.457031 5.976562 -63.570312 10.34375 -67.9375 C 14.707031 -72.300781 20.660156 -74.484375 28.203125 -74.484375 C 32.191406 -74.484375 35.835938 -73.96875 39.140625 -72.9375 C 42.441406 -71.90625 44.726562 -70.859375 46 -69.796875 L 48.5 -67.890625 C 50.5625 -65.953125 51.59375 -64.316406 51.59375 -62.984375 C 51.59375 -61.648438 50.789062 -59.816406 49.1875 -57.484375 C 46.925781 -54.148438 44.59375 -52.484375 42.1875 -52.484375 C 40.789062 -52.484375 39.0625 -53.148438 37 -54.484375 C 36.789062 -54.617188 36.40625 -54.953125 35.84375 -55.484375 C 35.28125 -56.023438 34.765625 -56.460938 34.296875 -56.796875 C 32.890625 -57.660156 31.101562 -58.09375 28.9375 -58.09375 C 26.78125 -58.09375 24.984375 -57.570312 23.546875 -56.53125 C 22.109375 -55.5 21.390625 -54.066406 21.390625 -52.234375 C 21.390625 -50.410156 22.238281 -48.929688 23.9375 -47.796875 C 25.644531 -46.660156 27.765625 -45.890625 30.296875 -45.484375 C 32.828125 -45.085938 35.59375 -44.472656 38.59375 -43.640625 C 41.59375 -42.804688 44.359375 -41.789062 46.890625 -40.59375 C 49.421875 -39.394531 51.535156 -37.3125 53.234375 -34.34375 C 54.941406 -31.375 55.796875 -27.722656 55.796875 -23.390625 C 55.796875 -19.054688 54.925781 -15.238281 53.1875 -11.9375 C 51.457031 -8.644531 49.191406 -6.097656 46.390625 -4.296875 C 40.992188 -0.765625 35.226562 1 29.09375 1 C 25.957031 1 22.988281 0.617188 20.1875 -0.140625 C 17.394531 -0.910156 15.128906 -1.863281 13.390625 -3 C 9.859375 -5.132812 7.394531 -7.203125 6 -9.203125 Z M 5.09375 -10.296875 "/></g></g></g><g fill="#004aad" fill-opacity="1"><g transform="translate(75.965939, 262.499133)"><g><path d="M 8.796875 -73.390625 L 64.390625 -73.390625 C 66.523438 -73.390625 68.09375 -73.140625 69.09375 -72.640625 C 70.09375 -72.140625 70.757812 -71.351562 71.09375 -70.28125 C 71.425781 -69.21875 71.59375 -67.816406 71.59375 -66.078125 C 71.59375 -64.347656 71.425781 -62.96875 71.09375 -61.9375 C 70.757812 -60.90625 70.191406 -60.191406 69.390625 -59.796875 C 68.191406 -59.191406 66.492188 -58.890625 64.296875 -58.890625 L 45.1875 -58.890625 L 45.1875 -8.59375 C 45.1875 -7.0625 45.132812 -5.925781 45.03125 -5.1875 C 44.9375 -4.457031 44.640625 -3.609375 44.140625 -2.640625 C 43.640625 -1.679688 42.753906 -1 41.484375 -0.59375 C 40.222656 -0.195312 38.554688 0 36.484375 0 C 34.421875 0 32.773438 -0.195312 31.546875 -0.59375 C 30.316406 -1 29.453125 -1.679688 28.953125 -2.640625 C 28.453125 -3.609375 28.148438 -4.476562 28.046875 -5.25 C 27.941406 -6.019531 27.890625 -7.171875 27.890625 -8.703125 L 27.890625 -58.890625 L 8.703125 -58.890625 C 6.566406 -58.890625 5 -59.140625 4 -59.640625 C 3 -60.140625 2.332031 -60.921875 2 -61.984375 C 1.664062 -63.054688 1.5 -64.457031 1.5 -66.1875 C 1.5 -67.925781 1.664062 -69.3125 2 -70.34375 C 2.332031 -71.375 2.898438 -72.085938 3.703125 -72.484375 C 4.898438 -73.085938 6.597656 -73.390625 8.796875 -73.390625 Z M 8.796875 -73.390625 "/></g></g></g><g fill="#004aad" fill-opacity="1"><g transform="translate(149.054496, 262.499133)"><g><path d="M 46.296875 -68.09375 L 73.28125 -12.296875 C 74.414062 -10.035156 74.984375 -8.335938 74.984375 -7.203125 C 74.984375 -4.796875 73.050781 -2.628906 69.1875 -0.703125 C 66.925781 0.429688 65.144531 1 63.84375 1 C 62.539062 1 61.472656 0.695312 60.640625 0.09375 C 59.804688 -0.5 59.207031 -1.128906 58.84375 -1.796875 C 58.476562 -2.460938 57.960938 -3.460938 57.296875 -4.796875 L 52.09375 -15.59375 L 24.390625 -15.59375 L 19.203125 -4.796875 C 18.535156 -3.460938 18.015625 -2.492188 17.640625 -1.890625 C 17.273438 -1.296875 16.675781 -0.679688 15.84375 -0.046875 C 15.007812 0.585938 13.941406 0.90625 12.640625 0.90625 C 11.347656 0.90625 9.566406 0.335938 7.296875 -0.796875 C 3.429688 -2.660156 1.5 -4.796875 1.5 -7.203125 C 1.5 -8.335938 2.066406 -10.035156 3.203125 -12.296875 L 30.1875 -68.1875 C 30.925781 -69.71875 32.046875 -70.945312 33.546875 -71.875 C 35.046875 -72.8125 36.628906 -73.28125 38.296875 -73.28125 C 41.890625 -73.28125 44.554688 -71.550781 46.296875 -68.09375 Z M 38.1875 -44.09375 L 31.59375 -30.390625 L 44.890625 -30.390625 Z M 38.1875 -44.09375 "/></g></g></g><g fill="#004aad" fill-opacity="1"><g transform="translate(225.54252, 262.499133)"><g><path d="M 49.796875 -19.203125 L 51.59375 -20.5 C 53.851562 -21.832031 55.453125 -22.5 56.390625 -22.5 C 58.453125 -22.5 60.6875 -20.628906 63.09375 -16.890625 C 64.5625 -14.554688 65.296875 -12.691406 65.296875 -11.296875 C 65.296875 -9.898438 64.84375 -8.734375 63.9375 -7.796875 C 63.039062 -6.867188 61.988281 -6.035156 60.78125 -5.296875 C 59.582031 -4.566406 58.429688 -3.867188 57.328125 -3.203125 C 56.234375 -2.535156 53.988281 -1.664062 50.59375 -0.59375 C 47.195312 0.46875 43.914062 1 40.75 1 C 37.582031 1 34.378906 0.582031 31.140625 -0.25 C 27.910156 -1.082031 24.578125 -2.484375 21.140625 -4.453125 C 17.710938 -6.421875 14.628906 -8.816406 11.890625 -11.640625 C 9.160156 -14.472656 6.910156 -18.109375 5.140625 -22.546875 C 3.378906 -26.984375 2.5 -31.800781 2.5 -37 C 2.5 -42.195312 3.363281 -46.910156 5.09375 -51.140625 C 6.832031 -55.367188 9.050781 -58.867188 11.75 -61.640625 C 14.445312 -64.410156 17.53125 -66.726562 21 -68.59375 C 27.53125 -72.1875 34.09375 -73.984375 40.6875 -73.984375 C 43.820312 -73.984375 47.003906 -73.5 50.234375 -72.53125 C 53.472656 -71.570312 55.925781 -70.59375 57.59375 -69.59375 L 59.984375 -68.1875 C 61.191406 -67.457031 62.128906 -66.859375 62.796875 -66.390625 C 64.523438 -64.992188 65.390625 -63.410156 65.390625 -61.640625 C 65.390625 -59.867188 64.691406 -58.019531 63.296875 -56.09375 C 60.691406 -52.488281 58.359375 -50.6875 56.296875 -50.6875 C 55.085938 -50.6875 53.382812 -51.421875 51.1875 -52.890625 C 48.394531 -55.160156 44.664062 -56.296875 40 -56.296875 C 35.664062 -56.296875 31.398438 -54.796875 27.203125 -51.796875 C 25.203125 -50.328125 23.535156 -48.257812 22.203125 -45.59375 C 20.867188 -42.925781 20.203125 -39.910156 20.203125 -36.546875 C 20.203125 -33.179688 20.867188 -30.164062 22.203125 -27.5 C 23.535156 -24.832031 25.234375 -22.734375 27.296875 -21.203125 C 31.359375 -18.265625 35.59375 -16.796875 40 -16.796875 C 42.0625 -16.796875 44.007812 -17.0625 45.84375 -17.59375 C 47.675781 -18.125 48.992188 -18.660156 49.796875 -19.203125 Z M 49.796875 -19.203125 "/></g></g></g><g fill="#004aad" fill-opacity="1"><g transform="translate(293.431889, 262.499133)"><g><path d="M 35.390625 -36.796875 C 45.585938 -26.992188 52.820312 -19.628906 57.09375 -14.703125 C 59.289062 -12.234375 60.390625 -10.148438 60.390625 -8.453125 C 60.390625 -6.753906 59.054688 -4.753906 56.390625 -2.453125 C 53.722656 -0.148438 51.539062 1 49.84375 1 C 48.144531 1 46.09375 -0.398438 43.6875 -3.203125 L 21.703125 -28.296875 L 21.703125 -8.796875 C 21.703125 -7.203125 21.648438 -6.035156 21.546875 -5.296875 C 21.441406 -4.566406 21.125 -3.703125 20.59375 -2.703125 C 19.664062 -0.898438 17.066406 0 12.796875 0 C 8.128906 0 5.394531 -1.265625 4.59375 -3.796875 C 4.195312 -4.867188 4 -6.570312 4 -8.90625 L 4 -64.484375 C 4 -66.023438 4.046875 -67.175781 4.140625 -67.9375 C 4.242188 -68.707031 4.5625 -69.59375 5.09375 -70.59375 C 6.03125 -72.382812 8.628906 -73.28125 12.890625 -73.28125 C 17.554688 -73.28125 20.328125 -72.050781 21.203125 -69.59375 C 21.535156 -68.457031 21.703125 -66.722656 21.703125 -64.390625 L 21.703125 -45.296875 C 30.765625 -55.492188 38.09375 -63.859375 43.6875 -70.390625 C 46.019531 -73.117188 48.050781 -74.484375 49.78125 -74.484375 C 51.519531 -74.484375 53.722656 -73.332031 56.390625 -71.03125 C 59.054688 -68.738281 60.390625 -66.738281 60.390625 -65.03125 C 60.390625 -63.332031 59.390625 -61.316406 57.390625 -58.984375 C 53.523438 -54.523438 47.523438 -48.394531 39.390625 -40.59375 Z M 35.390625 -36.796875 "/></g></g></g></svg>